<svg id="Capa_1" enable-background="new 0 0 512 512" height="512" viewBox="0 0 512 512" width="512" xmlns="http://www.w3.org/2000/svg"><g><g><g><g><g><g><g><path d="m50.017 24.962v418.698c0 13.786 11.176 24.962 24.962 24.962h318.725c13.786 0 24.962-11.176 24.962-24.962v-333.576l-110.084-110.084h-233.603c-13.786 0-24.962 11.176-24.962 24.962z" fill="#eaecf0"/><path d="m336.498 27.916v102.926c0 10.416 8.444 18.86 18.86 18.86h9.056v318.919h29.29c13.786 0 24.961-11.176 24.961-24.962v-333.575z" fill="#d3d7de"/><g><path d="m393.549 451.293c-1.978 0-3.955-.754-5.464-2.263l-47.318-47.318c-3.017-3.017-3.017-7.909 0-10.927 3.019-3.018 7.91-3.017 10.928 0l47.318 47.318c3.017 3.017 3.017 7.909 0 10.927-1.509 1.509-3.487 2.263-5.464 2.263z" fill="#676e84"/></g><path d="m308.582 0 110.084 110.084h-91.223c-10.416 0-18.86-8.444-18.86-18.86v-91.224z" fill="#df705d"/></g></g></g></g><g><g><circle cx="277.946" cy="327.963" fill="#676e84" r="111.33"/><path d="m356.668 249.241c-28.694-28.694-69.153-38.445-105.848-29.264 18.906 4.73 36.813 14.481 51.596 29.264 43.477 43.477 43.477 113.968 0 157.445-14.783 14.783-32.691 24.534-51.596 29.264 36.695 9.181 77.154-.57 105.848-29.264 43.477-43.478 43.477-113.968 0-157.445z" fill="#4a4e67"/><circle cx="277.946" cy="327.963" fill="#759ce7" r="84.87"/><path d="m337.958 267.951c-23.57-23.57-57.551-30.361-87.138-20.406 12.017 4.043 23.313 10.833 32.886 20.406 33.144 33.144 33.144 86.88 0 120.024-9.573 9.573-20.869 16.363-32.886 20.406 29.587 9.954 63.567 3.164 87.138-20.406 33.143-33.144 33.143-86.88 0-120.024z" fill="#5881cc"/></g><path d="m458.6 500.062-8.556 8.556c-4.51 4.51-11.823 4.51-16.334 0l-54.876-54.876c-4.51-4.51-4.51-11.823 0-16.334l8.556-8.556c4.51-4.51 11.823-4.51 16.334 0l54.876 54.876c4.51 4.51 4.51 11.823 0 16.334z" fill="#bf8e5c"/></g></g><g><path d="m228.448 77.407h-123.664c-4.268 0-7.726-3.459-7.726-7.726s3.459-7.726 7.726-7.726h123.664c4.268 0 7.726 3.459 7.726 7.726s-3.459 7.726-7.726 7.726z" fill="#676e84"/></g><g><path d="m228.448 117.81h-123.664c-4.268 0-7.726-3.459-7.726-7.726s3.459-7.726 7.726-7.726h123.664c4.268 0 7.726 3.459 7.726 7.726s-3.459 7.726-7.726 7.726z" fill="#676e84"/></g></g></g></svg>